<svg width="800px" height="800px" viewBox="0 0 24 24" xmlns="http://www.w3.org/2000/svg" data-name="Layer 1"
     style="background-color: transparent;">
    <defs>
        <linearGradient id="gradient" x1="0%" y1="0%" x2="100%" y2="100%">
            <stop offset="0%" style="stop-color: #2183B1"/>
            <stop offset="20%" style="stop-color: #168AAD"/>
            <stop offset="40%" style="stop-color: #1A759F"/>
            <stop offset="60%" style="stop-color: #1E6091"/>
            <stop offset="80%" style="stop-color: #1E6091"/>
            <stop offset="100%" style="stop-color: #134469"/>
        </linearGradient>
    </defs>

    <!-- Apply the gradient to the path -->
    <path d="M21,2a1,1,0,0,0-1,1V6H16V5a1,1,0,0,0-2,0V6H12V5a1,1,0,0,0-2,0V6H8V5A1,1,0,0,0,6,5V6H4V3A1,1,0,0,0,2,3V19a3,3,0,0,0,3,3H19a3,3,0,0,0,3-3V3A1,1,0,0,0,21,2ZM20,19a1,1,0,0,1-1,1H5a1,1,0,0,1-1-1V16H6v1a1,1,0,0,0,2,0V16h2v1a1,1,0,0,0,2,0V16h4v1a1,1,0,0,0,2,0V16h2Zm0-5H18V13a1,1,0,0,0-2,0v1H12V13a1,1,0,0,0-2,0v1H8V13a1,1,0,0,0-2,0v1H4V8H6V9A1,1,0,0,0,8,9V8h2V9a1,1,0,0,0,2,0V8h2V9a1,1,0,0,0,2,0V8h4Z"
          fill="url(#gradient)"/>
</svg>
